<!--?xml version="1.0" encoding="utf-8"?-->
<!-- Generator: Adobe Illustrator 15.1.0, SVG Export Plug-In . SVG Version: 6.00 Build 0)  -->

<svg version="1.1" id="_x32_" xmlns="http://www.w3.org/2000/svg" xmlns:xlink="http://www.w3.org/1999/xlink" x="0px" y="0px" width="512px" height="512px" viewBox="0 0 512 512" style="width: 48px; height: 48px; opacity: 1;" xml:space="preserve">
<style type="text/css">

	.st0{fill:#f2ff6b;}

</style>
<g>
	<path class="st0" d="M42.022,429.484c0,12.953,10.5,23.469,23.484,23.469h32.188c12.984,0,23.484-10.516,23.484-23.469v-33.578
		H42.022V429.484z" style="fill: #f2ff6b;"></path>
	<path class="st0" d="M390.85,429.484c0,12.953,10.5,23.469,23.469,23.469h32.188c12.984,0,23.484-10.516,23.484-23.469v-33.578
		H390.85V429.484z" style="fill: #f2ff6b;"></path>
	<path class="st0" d="M510.257,261.563c-0.688-19.891-13.828-37.172-32.797-43.172l-21.734-12.094l-31-112.734
		c-5.625-20.391-24.156-34.516-45.281-34.516c0,0-47.047,0-58.094,0c-11.031,0-188.766,0-188.766,0
		c-21.156,0-39.688,14.125-45.297,34.516l-31,112.734l-21.734,12.094c-18.969,6-32.109,23.281-32.797,43.172l-1.75,87.531
		c-0.188,8.438,3.016,16.594,8.891,22.641c5.906,6.047,13.984,9.438,22.422,9.438H480.71c8.422,0,16.516-3.391,22.406-9.438
		c5.875-6.047,9.094-14.203,8.875-22.641L510.257,261.563z M95.397,189.031l23.828-86.688c1.672-5.984,7.141-10.172,13.359-10.172
		h246.859c6.203,0,11.688,4.188,13.328,10.172l23.828,86.688c0.656,2.359,0.156,4.875-1.313,6.828
		c-1.469,1.938-3.797,3.078-6.219,3.078H102.959c-2.453,0-4.766-1.141-6.234-3.078C95.241,193.906,94.741,191.391,95.397,189.031z
		 M74.694,342.516c-21.344,0-38.656-17.297-38.656-38.656c0-21.344,17.313-38.656,38.656-38.656s38.656,17.313,38.656,38.656
		C113.35,325.219,96.038,342.516,74.694,342.516z M314.897,338.828H197.116v-38.641h117.781V338.828z M437.319,342.516
		c-21.344,0-38.672-17.297-38.672-38.656c0-21.344,17.328-38.656,38.672-38.656c21.359,0,38.656,17.313,38.656,38.656
		C475.976,325.219,458.679,342.516,437.319,342.516z" style="fill: #f2ff6b;"></path>
</g>
</svg>
