<!--?xml version="1.0" encoding="utf-8"?-->
<!-- Generator: Adobe Illustrator 18.1.1, SVG Export Plug-In . SVG Version: 6.00 Build 0)  -->

<svg version="1.1" id="_x32_" xmlns="http://www.w3.org/2000/svg" xmlns:xlink="http://www.w3.org/1999/xlink" x="0px" y="0px" viewBox="0 0 512 512" style="width: 48px; height: 48px; opacity: 1;" xml:space="preserve">
<style type="text/css">
	.st0{fill:#EA5532;}
</style>
<g>
	<path class="st0" d="M88.432,493.018l-0.782,1.768c1.145,10.576,10.644,18.239,21.241,17.102l26.298-2.836
		c10.605-1.145,18.255-10.653,17.119-21.236l0.773-1.768L88.432,493.018z" style="fill: #EA5532;"></path>
	<path class="st0" d="M437.963,455.346l-64.632,6.954l2.956,27.438c1.14,10.576,10.644,18.246,21.236,17.102l26.285-2.836
		c10.601-1.145,18.264-10.662,17.111-21.237L437.963,455.346z" style="fill: #EA5532;"></path>
	<path class="st0" d="M468.151,413.411l-9.123-71.338c-2.307-16.179-14.573-29.146-30.582-32.367l-18.819-7.97l-6.355-16.111
		c100.348-43.737,39.705-137.38,39.705-137.38s-16.248,49.889-40.534,48.88c-33.943-1.392-32.781-41.063,4.836-68.408
		C452.297,96,444.574,11.08,373.049,0c31.726,41.934-11.545,107.874-44.502,71.303c-21.374-23.705,4.66-39.526,20.066-44.31
		c-62.231-15.206-84.694,38.04-72.23,80.086c9.46,31.905,12.168,49.247-20.596,56.935c-41.136,9.644-37.309-29.531-39.79-43.174
		c-44.72,20.784-43.011,63.693-31.637,83.511c-28.408,3.067-51.609,5.57-51.609,5.57c-17.29,1.862-31.176,15.026-33.96,32.17
		l-15.398,94.804l-16.688,11.789c-14.967,6.569-24.171,21.843-22.98,38.15l6.27,71.646c0.585,6.91,3.926,13.283,9.256,17.708
		c5.36,4.408,12.25,6.475,19.139,5.731l367.039-39.551c6.876-0.744,13.181-4.22,17.47-9.688
		C467.161,427.233,469.074,420.28,468.151,413.411z M110.419,446.53c-17.434,1.88-33.101-10.72-34.981-28.173
		c-1.875-17.426,10.742-33.084,28.173-34.972c17.436-1.88,33.089,10.746,34.973,28.173
		C140.464,429.001,127.851,444.651,110.419,446.53z M210.076,432.743l-3.396-31.557l96.192-10.37l3.404,31.564L210.076,432.743z
		 M120.863,326.782c-2.003,0.205-3.998-0.512-5.361-1.974c-1.384-1.461-2.016-3.477-1.687-5.458l11.832-72.901
		c0.837-5.032,4.933-8.936,10.016-9.482l201.614-21.732c5.074-0.538,9.922,2.392,11.789,7.142l27.088,68.699
		c0.743,1.87,0.564,3.972-0.466,5.706c-1.038,1.708-2.836,2.836-4.814,3.058L120.863,326.782z M406.578,414.616
		c-17.418,1.879-33.102-10.73-34.973-28.164c-1.883-17.436,10.751-33.111,28.173-34.981c17.444-1.88,33.093,10.738,34.973,28.164
		C436.63,397.078,424.03,412.737,406.578,414.616z" style="fill: #EA5532;"></path>
</g>
</svg>
