<!--?xml version="1.0" encoding="utf-8"?-->
<!-- Generator: Adobe Illustrator 18.1.1, SVG Export Plug-In . SVG Version: 6.00 Build 0)  -->

<svg version="1.1" id="_x32_" xmlns="http://www.w3.org/2000/svg" xmlns:xlink="http://www.w3.org/1999/xlink" x="0px" y="0px" viewBox="0 0 512 512" style="width: 48px; height: 48px; opacity: 1;" xml:space="preserve">
<style type="text/css">
	.st0{fill:#00A95F;}
</style>
<g>
	<path class="st0" d="M395.773,225.883c-33.466,36.809-42.561,44.202-42.561,44.202c-6.183,5.902-15.278,7.543-23.136,4.183
		c-7.849-3.368-12.945-11.085-12.945-19.627V36.808l-0.509,0.044C313.421,15.988,295.39,0,273.623,0
		c-24.022,0-43.5,19.478-43.5,43.508v120.467l-122.282,49.323c-36.414,15.611-54.69,56.585-41.982,94.104l46.64,141.023V512h211.324
		v-63.575c0,0,109.214-164.772,120.467-180.717C464.373,239.275,429.231,189.075,395.773,225.883z"></path>
</g>
</svg>
